<mxfile host="app.diagrams.net" modified="2023-02-02T17:16:12.749Z" agent="5.0 (Windows NT 10.0; Win64; x64) AppleWebKit/537.36 (KHTML, like Gecko) Chrome/109.0.0.0 Safari/537.36" etag="tUFkoFWgLTmlhkHaH6X5" version="20.8.15" type="github">
  <diagram id="vMJj-B3Pcc6wCzlZiLWV" name="Page-1">
    <mxGraphModel dx="1434" dy="1591" grid="1" gridSize="10" guides="1" tooltips="1" connect="1" arrows="1" fold="1" page="1" pageScale="1" pageWidth="1169" pageHeight="827" math="0" shadow="0">
      <root>
        <mxCell id="0" />
        <mxCell id="1" parent="0" />
        <mxCell id="g-m3ffpUbJoWYXcliTLE-1" value="" style="rounded=1;whiteSpace=wrap;html=1;fillColor=#B3B3B3;" parent="1" vertex="1">
          <mxGeometry x="160" y="380" width="1279.5249999999999" height="401.57399999999996" as="geometry" />
        </mxCell>
        <mxCell id="ZoNqDZSnPG3O9zh2GNWx-1" value="" style="rounded=1;whiteSpace=wrap;html=1;" parent="1" vertex="1">
          <mxGeometry x="175.75" y="395.75" width="1248.029" height="370.078" as="geometry" />
        </mxCell>
        <mxCell id="g-m3ffpUbJoWYXcliTLE-4" value="" style="ellipse;whiteSpace=wrap;html=1;aspect=fixed;fillColor=#CCCCCC;fontSize=39;fontStyle=1" parent="1" vertex="1">
          <mxGeometry x="342.5" y="440" width="98.425" height="98.43" as="geometry" />
        </mxCell>
        <mxCell id="g-m3ffpUbJoWYXcliTLE-3" value="" style="ellipse;whiteSpace=wrap;html=1;aspect=fixed;fillColor=#CCCCCC;fontSize=39;fontStyle=1" parent="1" vertex="1">
          <mxGeometry x="220.01000000000005" y="440" width="98.425" height="98.43" as="geometry" />
        </mxCell>
        <mxCell id="g-m3ffpUbJoWYXcliTLE-38" value="" style="ellipse;whiteSpace=wrap;html=1;aspect=fixed;fillColor=#CCCCCC;fontSize=39;fontStyle=1" parent="1" vertex="1">
          <mxGeometry x="464.5" y="440" width="98.425" height="98.43" as="geometry" />
        </mxCell>
        <mxCell id="g-m3ffpUbJoWYXcliTLE-40" value="" style="ellipse;whiteSpace=wrap;html=1;aspect=fixed;fillColor=#CCCCCC;fontSize=39;fontStyle=1" parent="1" vertex="1">
          <mxGeometry x="586.5" y="440" width="98.425" height="98.43" as="geometry" />
        </mxCell>
        <mxCell id="g-m3ffpUbJoWYXcliTLE-42" value="" style="ellipse;whiteSpace=wrap;html=1;aspect=fixed;fillColor=#CCCCCC;fontSize=39;fontStyle=1" parent="1" vertex="1">
          <mxGeometry x="708.5" y="440" width="98.425" height="98.43" as="geometry" />
        </mxCell>
        <mxCell id="g-m3ffpUbJoWYXcliTLE-44" value="" style="ellipse;whiteSpace=wrap;html=1;aspect=fixed;fillColor=#CCCCCC;fontSize=39;fontStyle=1" parent="1" vertex="1">
          <mxGeometry x="830.5" y="440" width="98.425" height="98.43" as="geometry" />
        </mxCell>
        <mxCell id="g-m3ffpUbJoWYXcliTLE-46" value="" style="ellipse;whiteSpace=wrap;html=1;aspect=fixed;fillColor=#CCCCCC;fontSize=39;fontStyle=1" parent="1" vertex="1">
          <mxGeometry x="952.5" y="440" width="98.425" height="98.43" as="geometry" />
        </mxCell>
        <mxCell id="g-m3ffpUbJoWYXcliTLE-48" value="" style="ellipse;whiteSpace=wrap;html=1;aspect=fixed;fillColor=#CCCCCC;fontSize=39;fontStyle=1" parent="1" vertex="1">
          <mxGeometry x="1074.5" y="440" width="98.425" height="98.43" as="geometry" />
        </mxCell>
        <mxCell id="g-m3ffpUbJoWYXcliTLE-50" value="" style="rounded=1;whiteSpace=wrap;html=1;fontSize=19;fillColor=#B3B3B3;" parent="1" vertex="1">
          <mxGeometry x="245.6" y="581.74" width="47.244" height="35.433" as="geometry" />
        </mxCell>
        <mxCell id="g-m3ffpUbJoWYXcliTLE-51" value="" style="rounded=1;whiteSpace=wrap;html=1;fontSize=19;fillColor=#B3B3B3;" parent="1" vertex="1">
          <mxGeometry x="245.6" y="668.74" width="47.244" height="35.433" as="geometry" />
        </mxCell>
        <mxCell id="g-m3ffpUbJoWYXcliTLE-52" value="" style="rounded=1;whiteSpace=wrap;html=1;fontSize=19;fillColor=#B3B3B3;" parent="1" vertex="1">
          <mxGeometry x="368.09" y="581.74" width="47.244" height="35.433" as="geometry" />
        </mxCell>
        <mxCell id="g-m3ffpUbJoWYXcliTLE-53" value="" style="rounded=1;whiteSpace=wrap;html=1;fontSize=19;fillColor=#B3B3B3;" parent="1" vertex="1">
          <mxGeometry x="490.09" y="581.74" width="47.244" height="35.433" as="geometry" />
        </mxCell>
        <mxCell id="g-m3ffpUbJoWYXcliTLE-54" value="" style="rounded=1;whiteSpace=wrap;html=1;fontSize=19;fillColor=#B3B3B3;" parent="1" vertex="1">
          <mxGeometry x="612" y="581.74" width="47.244" height="35.433" as="geometry" />
        </mxCell>
        <mxCell id="g-m3ffpUbJoWYXcliTLE-55" value="" style="rounded=1;whiteSpace=wrap;html=1;fontSize=19;fillColor=#B3B3B3;" parent="1" vertex="1">
          <mxGeometry x="734" y="581.74" width="47.244" height="35.433" as="geometry" />
        </mxCell>
        <mxCell id="g-m3ffpUbJoWYXcliTLE-56" value="" style="rounded=1;whiteSpace=wrap;html=1;fontSize=19;fillColor=#B3B3B3;" parent="1" vertex="1">
          <mxGeometry x="856" y="581.74" width="47.244" height="35.433" as="geometry" />
        </mxCell>
        <mxCell id="g-m3ffpUbJoWYXcliTLE-57" value="" style="rounded=1;whiteSpace=wrap;html=1;fontSize=19;fillColor=#B3B3B3;" parent="1" vertex="1">
          <mxGeometry x="978" y="581.74" width="47.244" height="35.433" as="geometry" />
        </mxCell>
        <mxCell id="g-m3ffpUbJoWYXcliTLE-58" value="" style="rounded=1;whiteSpace=wrap;html=1;fontSize=19;fillColor=#B3B3B3;" parent="1" vertex="1">
          <mxGeometry x="1100.0000000000002" y="581.74" width="47.244" height="35.433" as="geometry" />
        </mxCell>
        <mxCell id="g-m3ffpUbJoWYXcliTLE-60" value="" style="rounded=1;whiteSpace=wrap;html=1;fontSize=19;fillColor=#B3B3B3;" parent="1" vertex="1">
          <mxGeometry x="368.09" y="668.74" width="47.244" height="35.433" as="geometry" />
        </mxCell>
        <mxCell id="g-m3ffpUbJoWYXcliTLE-61" value="" style="rounded=1;whiteSpace=wrap;html=1;fontSize=19;fillColor=#B3B3B3;" parent="1" vertex="1">
          <mxGeometry x="490" y="668.74" width="47.244" height="35.433" as="geometry" />
        </mxCell>
        <mxCell id="g-m3ffpUbJoWYXcliTLE-62" value="" style="rounded=1;whiteSpace=wrap;html=1;fontSize=19;fillColor=#B3B3B3;" parent="1" vertex="1">
          <mxGeometry x="612" y="668.74" width="47.244" height="35.433" as="geometry" />
        </mxCell>
        <mxCell id="g-m3ffpUbJoWYXcliTLE-63" value="" style="rounded=1;whiteSpace=wrap;html=1;fontSize=19;fillColor=#B3B3B3;" parent="1" vertex="1">
          <mxGeometry x="734" y="668.74" width="47.244" height="35.433" as="geometry" />
        </mxCell>
        <mxCell id="g-m3ffpUbJoWYXcliTLE-64" value="" style="rounded=1;whiteSpace=wrap;html=1;fontSize=19;fillColor=#B3B3B3;" parent="1" vertex="1">
          <mxGeometry x="856" y="668.74" width="47.244" height="35.433" as="geometry" />
        </mxCell>
        <mxCell id="g-m3ffpUbJoWYXcliTLE-65" value="" style="rounded=1;whiteSpace=wrap;html=1;fontSize=19;fillColor=#B3B3B3;" parent="1" vertex="1">
          <mxGeometry x="978" y="668.74" width="47.244" height="35.433" as="geometry" />
        </mxCell>
        <mxCell id="g-m3ffpUbJoWYXcliTLE-66" value="" style="rounded=1;whiteSpace=wrap;html=1;fontSize=19;fillColor=#B3B3B3;" parent="1" vertex="1">
          <mxGeometry x="1100.0000000000002" y="668.74" width="47.244" height="35.433" as="geometry" />
        </mxCell>
        <mxCell id="g-m3ffpUbJoWYXcliTLE-72" value="" style="rounded=1;whiteSpace=wrap;html=1;fontSize=19;fillColor=#B3B3B3;" parent="1" vertex="1">
          <mxGeometry x="1337.16" y="590" width="47.244" height="35.433" as="geometry" />
        </mxCell>
        <mxCell id="g-m3ffpUbJoWYXcliTLE-73" value="" style="rounded=1;whiteSpace=wrap;html=1;fontSize=19;fillColor=#B3B3B3;" parent="1" vertex="1">
          <mxGeometry x="1337.16" y="668.74" width="47.244" height="35.433" as="geometry" />
        </mxCell>
        <mxCell id="g-m3ffpUbJoWYXcliTLE-74" value="" style="rounded=1;whiteSpace=wrap;html=1;fillColor=#B3B3B3;fontSize=19;" parent="1" vertex="1">
          <mxGeometry x="1254.49" y="450.86" width="11.811" height="267.716" as="geometry" />
        </mxCell>
        <mxCell id="g-m3ffpUbJoWYXcliTLE-81" value="" style="rounded=1;whiteSpace=wrap;html=1;fontSize=19;fillColor=#B3B3B3;" parent="1" vertex="1">
          <mxGeometry x="1348.97" y="521.73" width="23.622" height="23.622" as="geometry" />
        </mxCell>
        <mxCell id="SZstE6viva17Y7oZw4HI-2" value="" style="rounded=1;whiteSpace=wrap;html=1;glass=0;shadow=0;" vertex="1" parent="1">
          <mxGeometry x="175.75" y="-24.25" width="1248.029" height="370.078" as="geometry" />
        </mxCell>
        <mxCell id="SZstE6viva17Y7oZw4HI-3" value="" style="ellipse;whiteSpace=wrap;html=1;aspect=fixed;fillColor=#CCCCCC;fontSize=39;fontStyle=1" vertex="1" parent="1">
          <mxGeometry x="342.5" y="20" width="98.425" height="98.43" as="geometry" />
        </mxCell>
        <mxCell id="SZstE6viva17Y7oZw4HI-4" value="" style="ellipse;whiteSpace=wrap;html=1;aspect=fixed;fillColor=#CCCCCC;fontSize=39;fontStyle=1" vertex="1" parent="1">
          <mxGeometry x="220.01000000000005" y="20" width="98.425" height="98.43" as="geometry" />
        </mxCell>
        <mxCell id="SZstE6viva17Y7oZw4HI-5" value="" style="ellipse;whiteSpace=wrap;html=1;aspect=fixed;fillColor=#CCCCCC;fontSize=39;fontStyle=1" vertex="1" parent="1">
          <mxGeometry x="464.5" y="20" width="98.425" height="98.43" as="geometry" />
        </mxCell>
        <mxCell id="SZstE6viva17Y7oZw4HI-6" value="" style="ellipse;whiteSpace=wrap;html=1;aspect=fixed;fillColor=#CCCCCC;fontSize=39;fontStyle=1" vertex="1" parent="1">
          <mxGeometry x="586.5" y="20" width="98.425" height="98.43" as="geometry" />
        </mxCell>
        <mxCell id="SZstE6viva17Y7oZw4HI-7" value="" style="ellipse;whiteSpace=wrap;html=1;aspect=fixed;fillColor=#CCCCCC;fontSize=39;fontStyle=1" vertex="1" parent="1">
          <mxGeometry x="708.5" y="20" width="98.425" height="98.43" as="geometry" />
        </mxCell>
        <mxCell id="SZstE6viva17Y7oZw4HI-8" value="" style="ellipse;whiteSpace=wrap;html=1;aspect=fixed;fillColor=#CCCCCC;fontSize=39;fontStyle=1" vertex="1" parent="1">
          <mxGeometry x="830.5" y="20" width="98.425" height="98.43" as="geometry" />
        </mxCell>
        <mxCell id="SZstE6viva17Y7oZw4HI-9" value="" style="ellipse;whiteSpace=wrap;html=1;aspect=fixed;fillColor=#CCCCCC;fontSize=39;fontStyle=1" vertex="1" parent="1">
          <mxGeometry x="952.5" y="20" width="98.425" height="98.43" as="geometry" />
        </mxCell>
        <mxCell id="SZstE6viva17Y7oZw4HI-10" value="" style="ellipse;whiteSpace=wrap;html=1;aspect=fixed;fillColor=#CCCCCC;fontSize=39;fontStyle=1" vertex="1" parent="1">
          <mxGeometry x="1074.5" y="20" width="98.425" height="98.43" as="geometry" />
        </mxCell>
        <mxCell id="SZstE6viva17Y7oZw4HI-11" value="" style="rounded=1;whiteSpace=wrap;html=1;fontSize=19;fillColor=#B3B3B3;" vertex="1" parent="1">
          <mxGeometry x="245.6" y="161.74" width="47.244" height="35.433" as="geometry" />
        </mxCell>
        <mxCell id="SZstE6viva17Y7oZw4HI-12" value="" style="rounded=1;whiteSpace=wrap;html=1;fontSize=19;fillColor=#B3B3B3;" vertex="1" parent="1">
          <mxGeometry x="245.6" y="248.74" width="47.244" height="35.433" as="geometry" />
        </mxCell>
        <mxCell id="SZstE6viva17Y7oZw4HI-13" value="" style="rounded=1;whiteSpace=wrap;html=1;fontSize=19;fillColor=#B3B3B3;" vertex="1" parent="1">
          <mxGeometry x="368.09" y="161.74" width="47.244" height="35.433" as="geometry" />
        </mxCell>
        <mxCell id="SZstE6viva17Y7oZw4HI-14" value="" style="rounded=1;whiteSpace=wrap;html=1;fontSize=19;fillColor=#B3B3B3;" vertex="1" parent="1">
          <mxGeometry x="490.09" y="161.74" width="47.244" height="35.433" as="geometry" />
        </mxCell>
        <mxCell id="SZstE6viva17Y7oZw4HI-15" value="" style="rounded=1;whiteSpace=wrap;html=1;fontSize=19;fillColor=#B3B3B3;" vertex="1" parent="1">
          <mxGeometry x="612" y="161.74" width="47.244" height="35.433" as="geometry" />
        </mxCell>
        <mxCell id="SZstE6viva17Y7oZw4HI-16" value="" style="rounded=1;whiteSpace=wrap;html=1;fontSize=19;fillColor=#B3B3B3;" vertex="1" parent="1">
          <mxGeometry x="734" y="161.74" width="47.244" height="35.433" as="geometry" />
        </mxCell>
        <mxCell id="SZstE6viva17Y7oZw4HI-17" value="" style="rounded=1;whiteSpace=wrap;html=1;fontSize=19;fillColor=#B3B3B3;" vertex="1" parent="1">
          <mxGeometry x="856" y="161.74" width="47.244" height="35.433" as="geometry" />
        </mxCell>
        <mxCell id="SZstE6viva17Y7oZw4HI-18" value="" style="rounded=1;whiteSpace=wrap;html=1;fontSize=19;fillColor=#B3B3B3;" vertex="1" parent="1">
          <mxGeometry x="978" y="161.74" width="47.244" height="35.433" as="geometry" />
        </mxCell>
        <mxCell id="SZstE6viva17Y7oZw4HI-19" value="" style="rounded=1;whiteSpace=wrap;html=1;fontSize=19;fillColor=#B3B3B3;" vertex="1" parent="1">
          <mxGeometry x="1100.0000000000002" y="161.74" width="47.244" height="35.433" as="geometry" />
        </mxCell>
        <mxCell id="SZstE6viva17Y7oZw4HI-20" value="" style="rounded=1;whiteSpace=wrap;html=1;fontSize=19;fillColor=#B3B3B3;" vertex="1" parent="1">
          <mxGeometry x="368.09" y="248.74" width="47.244" height="35.433" as="geometry" />
        </mxCell>
        <mxCell id="SZstE6viva17Y7oZw4HI-21" value="" style="rounded=1;whiteSpace=wrap;html=1;fontSize=19;fillColor=#B3B3B3;" vertex="1" parent="1">
          <mxGeometry x="490" y="248.74" width="47.244" height="35.433" as="geometry" />
        </mxCell>
        <mxCell id="SZstE6viva17Y7oZw4HI-22" value="" style="rounded=1;whiteSpace=wrap;html=1;fontSize=19;fillColor=#B3B3B3;" vertex="1" parent="1">
          <mxGeometry x="612" y="248.74" width="47.244" height="35.433" as="geometry" />
        </mxCell>
        <mxCell id="SZstE6viva17Y7oZw4HI-23" value="" style="rounded=1;whiteSpace=wrap;html=1;fontSize=19;fillColor=#B3B3B3;" vertex="1" parent="1">
          <mxGeometry x="734" y="248.74" width="47.244" height="35.433" as="geometry" />
        </mxCell>
        <mxCell id="SZstE6viva17Y7oZw4HI-24" value="" style="rounded=1;whiteSpace=wrap;html=1;fontSize=19;fillColor=#B3B3B3;" vertex="1" parent="1">
          <mxGeometry x="856" y="248.74" width="47.244" height="35.433" as="geometry" />
        </mxCell>
        <mxCell id="SZstE6viva17Y7oZw4HI-25" value="" style="rounded=1;whiteSpace=wrap;html=1;fontSize=19;fillColor=#B3B3B3;" vertex="1" parent="1">
          <mxGeometry x="978" y="248.74" width="47.244" height="35.433" as="geometry" />
        </mxCell>
        <mxCell id="SZstE6viva17Y7oZw4HI-26" value="" style="rounded=1;whiteSpace=wrap;html=1;fontSize=19;fillColor=#B3B3B3;" vertex="1" parent="1">
          <mxGeometry x="1100.0000000000002" y="248.74" width="47.244" height="35.433" as="geometry" />
        </mxCell>
        <mxCell id="SZstE6viva17Y7oZw4HI-27" value="" style="rounded=1;whiteSpace=wrap;html=1;fontSize=19;fillColor=#B3B3B3;" vertex="1" parent="1">
          <mxGeometry x="1337.16" y="170" width="47.244" height="35.433" as="geometry" />
        </mxCell>
        <mxCell id="SZstE6viva17Y7oZw4HI-28" value="" style="rounded=1;whiteSpace=wrap;html=1;fontSize=19;fillColor=#B3B3B3;" vertex="1" parent="1">
          <mxGeometry x="1337.16" y="248.74" width="47.244" height="35.433" as="geometry" />
        </mxCell>
        <mxCell id="SZstE6viva17Y7oZw4HI-29" value="" style="rounded=1;whiteSpace=wrap;html=1;fillColor=#B3B3B3;fontSize=19;" vertex="1" parent="1">
          <mxGeometry x="1254.49" y="30.860000000000014" width="11.811" height="267.716" as="geometry" />
        </mxCell>
        <mxCell id="SZstE6viva17Y7oZw4HI-30" value="" style="rounded=1;whiteSpace=wrap;html=1;fontSize=19;fillColor=#B3B3B3;" vertex="1" parent="1">
          <mxGeometry x="1348.97" y="101.73000000000002" width="23.622" height="23.622" as="geometry" />
        </mxCell>
        <mxCell id="SZstE6viva17Y7oZw4HI-31" value="Text" style="text;html=1;strokeColor=none;fillColor=none;align=center;verticalAlign=middle;whiteSpace=wrap;rounded=0;" vertex="1" parent="1">
          <mxGeometry x="727.62" y="298.58" width="60" height="30" as="geometry" />
        </mxCell>
        <mxCell id="SZstE6viva17Y7oZw4HI-34" value="Text" style="text;html=1;strokeColor=none;fillColor=none;align=center;verticalAlign=middle;whiteSpace=wrap;rounded=0;" vertex="1" parent="1">
          <mxGeometry x="605.71" y="298.58" width="60" height="30" as="geometry" />
        </mxCell>
        <mxCell id="SZstE6viva17Y7oZw4HI-35" value="Text" style="text;html=1;strokeColor=none;fillColor=none;align=center;verticalAlign=middle;whiteSpace=wrap;rounded=0;" vertex="1" parent="1">
          <mxGeometry x="605.62" y="208" width="60" height="30" as="geometry" />
        </mxCell>
        <mxCell id="SZstE6viva17Y7oZw4HI-36" value="Text" style="text;html=1;strokeColor=none;fillColor=none;align=center;verticalAlign=middle;whiteSpace=wrap;rounded=0;" vertex="1" parent="1">
          <mxGeometry x="727.71" y="208" width="60" height="30" as="geometry" />
        </mxCell>
        <mxCell id="SZstE6viva17Y7oZw4HI-38" value="Text" style="text;html=1;strokeColor=none;fillColor=none;align=center;verticalAlign=middle;whiteSpace=wrap;rounded=0;" vertex="1" parent="1">
          <mxGeometry x="849.62" y="298.58" width="60" height="30" as="geometry" />
        </mxCell>
        <mxCell id="SZstE6viva17Y7oZw4HI-39" value="Text" style="text;html=1;strokeColor=none;fillColor=none;align=center;verticalAlign=middle;whiteSpace=wrap;rounded=0;" vertex="1" parent="1">
          <mxGeometry x="849.62" y="208" width="60" height="30" as="geometry" />
        </mxCell>
        <mxCell id="SZstE6viva17Y7oZw4HI-40" value="Text" style="text;html=1;strokeColor=none;fillColor=none;align=center;verticalAlign=middle;whiteSpace=wrap;rounded=0;" vertex="1" parent="1">
          <mxGeometry x="971.62" y="298.58" width="60" height="30" as="geometry" />
        </mxCell>
        <mxCell id="SZstE6viva17Y7oZw4HI-41" value="Text" style="text;html=1;strokeColor=none;fillColor=none;align=center;verticalAlign=middle;whiteSpace=wrap;rounded=0;" vertex="1" parent="1">
          <mxGeometry x="971.62" y="208" width="60" height="30" as="geometry" />
        </mxCell>
        <mxCell id="SZstE6viva17Y7oZw4HI-42" value="Text" style="text;html=1;strokeColor=none;fillColor=none;align=center;verticalAlign=middle;whiteSpace=wrap;rounded=0;" vertex="1" parent="1">
          <mxGeometry x="1093.62" y="298.58" width="60" height="30" as="geometry" />
        </mxCell>
        <mxCell id="SZstE6viva17Y7oZw4HI-43" value="Text" style="text;html=1;strokeColor=none;fillColor=none;align=center;verticalAlign=middle;whiteSpace=wrap;rounded=0;" vertex="1" parent="1">
          <mxGeometry x="1093.62" y="208" width="60" height="30" as="geometry" />
        </mxCell>
        <mxCell id="SZstE6viva17Y7oZw4HI-44" value="Text" style="text;html=1;strokeColor=none;fillColor=none;align=center;verticalAlign=middle;whiteSpace=wrap;rounded=0;" vertex="1" parent="1">
          <mxGeometry x="483.5800000000001" y="298.58" width="60" height="30" as="geometry" />
        </mxCell>
        <mxCell id="SZstE6viva17Y7oZw4HI-45" value="Text" style="text;html=1;strokeColor=none;fillColor=none;align=center;verticalAlign=middle;whiteSpace=wrap;rounded=0;" vertex="1" parent="1">
          <mxGeometry x="483.62000000000006" y="208" width="60" height="30" as="geometry" />
        </mxCell>
        <mxCell id="SZstE6viva17Y7oZw4HI-46" value="Text" style="text;html=1;strokeColor=none;fillColor=none;align=center;verticalAlign=middle;whiteSpace=wrap;rounded=0;" vertex="1" parent="1">
          <mxGeometry x="361.6700000000001" y="298.58" width="60" height="30" as="geometry" />
        </mxCell>
        <mxCell id="SZstE6viva17Y7oZw4HI-47" value="Text" style="text;html=1;strokeColor=none;fillColor=none;align=center;verticalAlign=middle;whiteSpace=wrap;rounded=0;" vertex="1" parent="1">
          <mxGeometry x="361.67" y="208" width="60" height="30" as="geometry" />
        </mxCell>
        <mxCell id="SZstE6viva17Y7oZw4HI-49" value="Text" style="text;html=1;strokeColor=none;fillColor=none;align=center;verticalAlign=middle;whiteSpace=wrap;rounded=0;" vertex="1" parent="1">
          <mxGeometry x="239.22000000000008" y="298.58" width="60" height="30" as="geometry" />
        </mxCell>
        <mxCell id="SZstE6viva17Y7oZw4HI-50" value="Text" style="text;html=1;strokeColor=none;fillColor=none;align=center;verticalAlign=middle;whiteSpace=wrap;rounded=0;" vertex="1" parent="1">
          <mxGeometry x="239.22000000000003" y="208" width="60" height="30" as="geometry" />
        </mxCell>
        <mxCell id="SZstE6viva17Y7oZw4HI-51" value="Text" style="text;html=1;strokeColor=none;fillColor=none;align=center;verticalAlign=middle;whiteSpace=wrap;rounded=0;" vertex="1" parent="1">
          <mxGeometry x="1169" y="149.72" width="60" height="30" as="geometry" />
        </mxCell>
        <mxCell id="SZstE6viva17Y7oZw4HI-53" value="" style="shape=flexArrow;endArrow=classic;startArrow=classic;html=1;rounded=0;" edge="1" parent="1">
          <mxGeometry width="100" height="100" relative="1" as="geometry">
            <mxPoint x="1225" y="265.46" as="sourcePoint" />
            <mxPoint x="1225" y="65.46" as="targetPoint" />
            <Array as="points">
              <mxPoint x="1225" y="165.46" />
            </Array>
          </mxGeometry>
        </mxCell>
        <mxCell id="SZstE6viva17Y7oZw4HI-55" value="Text" style="text;html=1;strokeColor=none;fillColor=none;align=center;verticalAlign=middle;whiteSpace=wrap;rounded=0;" vertex="1" parent="1">
          <mxGeometry x="239.22000000000008" y="125.35" width="60" height="30" as="geometry" />
        </mxCell>
        <mxCell id="SZstE6viva17Y7oZw4HI-56" value="Text" style="text;html=1;strokeColor=none;fillColor=none;align=center;verticalAlign=middle;whiteSpace=wrap;rounded=0;" vertex="1" parent="1">
          <mxGeometry x="361.6700000000001" y="125.35" width="60" height="30" as="geometry" />
        </mxCell>
        <mxCell id="SZstE6viva17Y7oZw4HI-57" value="Text" style="text;html=1;strokeColor=none;fillColor=none;align=center;verticalAlign=middle;whiteSpace=wrap;rounded=0;" vertex="1" parent="1">
          <mxGeometry x="483.7100000000001" y="125.35" width="60" height="30" as="geometry" />
        </mxCell>
        <mxCell id="SZstE6viva17Y7oZw4HI-58" value="Text" style="text;html=1;strokeColor=none;fillColor=none;align=center;verticalAlign=middle;whiteSpace=wrap;rounded=0;" vertex="1" parent="1">
          <mxGeometry x="605.6200000000001" y="125.35" width="60" height="30" as="geometry" />
        </mxCell>
        <mxCell id="SZstE6viva17Y7oZw4HI-59" value="Text" style="text;html=1;strokeColor=none;fillColor=none;align=center;verticalAlign=middle;whiteSpace=wrap;rounded=0;" vertex="1" parent="1">
          <mxGeometry x="727.71" y="125.35" width="60" height="30" as="geometry" />
        </mxCell>
        <mxCell id="SZstE6viva17Y7oZw4HI-60" value="Text" style="text;html=1;strokeColor=none;fillColor=none;align=center;verticalAlign=middle;whiteSpace=wrap;rounded=0;" vertex="1" parent="1">
          <mxGeometry x="849.6200000000001" y="125.35" width="60" height="30" as="geometry" />
        </mxCell>
        <mxCell id="SZstE6viva17Y7oZw4HI-61" value="Text" style="text;html=1;strokeColor=none;fillColor=none;align=center;verticalAlign=middle;whiteSpace=wrap;rounded=0;" vertex="1" parent="1">
          <mxGeometry x="971.6200000000001" y="125.35" width="60" height="30" as="geometry" />
        </mxCell>
        <mxCell id="SZstE6viva17Y7oZw4HI-62" value="Text" style="text;html=1;strokeColor=none;fillColor=none;align=center;verticalAlign=middle;whiteSpace=wrap;rounded=0;" vertex="1" parent="1">
          <mxGeometry x="1093.6200000000001" y="125.35" width="60" height="30" as="geometry" />
        </mxCell>
      </root>
    </mxGraphModel>
  </diagram>
</mxfile>
